<svg width="612" height="807" viewBox="0 0 612 807" fill="none" xmlns="http://www.w3.org/2000/svg">
<line x1="0.5" y1="807" x2="0.5" y2="148" stroke="black"/>
<line x1="0.701428" y1="806.599" x2="90.7014" y2="739.599" stroke="black"/>
<line x1="1.31496" y1="147.612" x2="345.315" y2="426.612" stroke="black"/>
<line x1="90.5" y1="740.001" x2="89.4583" y2="315.001" stroke="black"/>
<line x1="90.3316" y1="313.626" x2="345.332" y2="539.626" stroke="black"/>
<line x1="344.703" y1="426.597" x2="420.703" y2="370.597" stroke="black"/>
<line x1="420.5" y1="371" x2="420.5" y2="486" stroke="black"/>
<line x1="344.71" y1="539.592" x2="420.71" y2="485.592" stroke="black"/>
<line x1="496.5" y1="314" x2="496.5" y2="429" stroke="black"/>
<line x1="428.7" y1="364.6" x2="496.7" y2="313.6" stroke="black"/>
<line x1="428.5" y1="364" x2="428.5" y2="480" stroke="black"/>
<line x1="428.7" y1="479.6" x2="496.7" y2="428.6" stroke="black"/>
<line x1="611.5" y1="228" x2="611.5" y2="343" stroke="black"/>
<line x1="504.692" y1="310.606" x2="610.692" y2="227.606" stroke="black"/>
<line x1="504.5" y1="310" x2="504.5" y2="426" stroke="black"/>
<line x1="504.692" y1="425.606" x2="610.692" y2="342.606" stroke="black"/>
<line x1="611.5" y1="1" x2="611.5" y2="112" stroke="black"/>
<line x1="349.5" y1="191" x2="349.5" y2="307" stroke="black"/>
<line x1="349.701" y1="306.599" x2="610.701" y2="111.599" stroke="black"/>
<line x1="348.706" y1="190.595" x2="610.706" y2="0.595219" stroke="black"/>
<path d="M97.692 514.606L208.5 428" stroke="black"/>
<line x1="97.5" y1="513.995" x2="98.5" y2="604.995" stroke="black"/>
<line x1="98.6806" y1="604.615" x2="257.681" y2="472.615" stroke="black"/>
<line x1="208.33" y1="428.625" x2="258.33" y2="472.625" stroke="black"/>
<line y1="-0.5" x2="92.4335" y2="-0.5" transform="matrix(0.000101497 1 -1 0.000110064 350 320.566)" stroke="black"/>
<line x1="350.703" y1="320.598" x2="537.703" y2="182.598" stroke="black"/>
<line x1="350.579" y1="412.6" x2="537.701" y2="272.6" stroke="black"/>
<line x1="538.5" y1="183" x2="538.5" y2="273" stroke="black"/>
<line x1="431.43" y1="488.002" x2="430.5" y2="779.002" stroke="black"/>
<line x1="496.43" y1="441" x2="496.498" y2="731" stroke="black"/>
<line x1="431.633" y1="488.598" x2="496.633" y2="440.598" stroke="black"/>
<line x1="431.629" y1="779.601" x2="496.629" y2="730.601" stroke="black"/>
</svg>
